<svg width="147" height="27" viewBox="0 0 147 27" fill="none" xmlns="http://www.w3.org/2000/svg">
<path fill-rule="evenodd" clip-rule="evenodd" d="M29.277 22.6769C29.277 25.1199 28.427 26.1189 26.112 26.1189H5.57001C3.25401 26.1189 2.40501 25.1189 2.40501 22.6769V17.9199C2.40501 15.6259 1.30001 14.3299 0.238006 13.7359C0.164944 13.6916 0.104535 13.6293 0.062609 13.5548C0.0206832 13.4804 -0.00134277 13.3964 -0.00134277 13.3109C-0.00134277 13.2255 0.0206832 13.1415 0.062609 13.0671C0.104535 12.9926 0.164944 12.9302 0.238006 12.8859C1.34301 12.1849 2.40501 10.7189 2.40501 8.76494V4.08994C2.40501 1.45594 3.12701 0.689941 5.44201 0.689941H26.24C28.556 0.689941 29.278 1.45594 29.278 4.08994V8.76294C29.278 10.7169 30.34 12.1829 31.444 12.8829C31.764 13.0959 31.764 13.5429 31.444 13.7329C30.382 14.3489 29.278 15.6449 29.278 17.9179V22.6759H29.277V22.6769ZM9.81901 19.5549C11.497 21.0199 13.303 21.7639 15.789 21.7639C19.697 21.7639 22.246 19.8099 22.246 16.6439C22.246 13.2919 19.21 12.4369 16.741 11.7419C15.048 11.2649 13.621 10.8619 13.621 9.78194C13.621 9.08194 14.365 8.40194 15.618 8.40194C16.828 8.40194 17.828 8.65794 18.783 9.14594C19.102 9.29494 19.399 9.40094 19.675 9.40094C20.079 9.40094 20.398 9.20994 20.674 8.82794L21.056 8.25394C21.205 8.04194 21.269 7.80794 21.269 7.55394C21.269 7.12794 21.056 6.70394 20.738 6.49094C19.463 5.68394 17.742 5.00394 15.406 5.00394C12.092 5.00394 9.54301 6.74594 9.54301 9.86794C9.54301 13.3579 12.645 14.2449 15.129 14.9529C16.786 15.4259 18.167 15.8199 18.167 16.8569C18.167 17.8549 17.233 18.3439 16.064 18.3439C14.6603 18.3573 13.2847 17.9505 12.114 17.1759C11.752 16.9419 11.412 16.7929 11.051 16.7929C10.731 16.7929 10.456 16.9419 10.201 17.2609L9.69101 17.9189C9.50101 18.1319 9.43701 18.4079 9.43701 18.6629C9.43701 18.9809 9.54301 19.2999 9.81901 19.5549ZM41.555 17.5999C41.279 17.5999 41.045 17.7069 40.833 17.9829L40.408 18.5779C40.238 18.7679 40.195 19.0019 40.195 19.2149C40.195 19.4909 40.301 19.7669 40.535 19.9799C41.937 21.1899 43.467 21.8279 45.57 21.8279C48.862 21.8279 51.029 20.1709 51.029 17.5149C51.029 14.6909 48.461 13.9699 46.375 13.3839C44.945 12.9819 43.743 12.6439 43.743 11.7379C43.743 11.1219 44.38 10.5679 45.421 10.5679C46.3444 10.565 47.255 10.7842 48.076 11.2069L48.14 11.2309C48.392 11.3289 48.625 11.4189 48.84 11.4189C49.16 11.4189 49.436 11.2689 49.67 10.9289L50.01 10.4419C50.1248 10.2572 50.1838 10.0434 50.18 9.82594C50.18 9.46494 50.01 9.10394 49.733 8.93394C48.65 8.21094 47.205 7.65894 45.23 7.65894C42.447 7.65894 40.28 9.14594 40.28 11.7789C40.28 14.7069 42.895 15.4539 44.992 16.0519C46.395 16.4519 47.566 16.7869 47.566 17.6639C47.566 18.5339 46.78 18.9389 45.782 18.9389C44.486 18.9389 43.402 18.5779 42.447 17.9389C42.171 17.7279 41.831 17.5989 41.555 17.5989V17.5999ZM61.841 19.8949C61.8441 19.7136 61.7918 19.5357 61.691 19.3849L61.416 18.9389C61.161 18.4929 60.864 18.3229 60.481 18.3229C60.291 18.3229 60.078 18.3649 59.801 18.4709C59.526 18.5779 59.207 18.6199 58.846 18.6199C57.72 18.6199 57.231 17.6429 57.231 16.1769V11.2499H60.481C61.097 11.2499 61.607 10.7399 61.607 10.1239V9.10394C61.607 8.48894 61.097 7.97894 60.481 7.97894H57.231V5.34494C57.231 4.72894 56.721 4.21894 56.106 4.21894H54.895C54.279 4.21894 53.769 4.72894 53.769 5.34494V16.3049C53.769 19.7679 54.916 21.7439 57.954 21.7439C59.292 21.7439 60.312 21.4679 61.331 20.8509C61.671 20.6809 61.841 20.2779 61.841 19.8959V19.8949ZM68.723 13.1399C65.983 13.1399 63.795 14.5419 63.795 17.5149C63.795 20.1279 65.558 21.6579 67.959 21.6789C69.785 21.6789 71.229 20.9779 71.952 19.9589V20.4039C71.952 21.0199 72.462 21.5299 73.078 21.5299H73.864C74.48 21.5299 74.99 21.0199 74.99 20.4039V13.3099C74.99 9.74194 73.609 7.70294 69.616 7.70294C68.235 7.70294 66.896 8.06294 65.728 8.59494C65.368 8.76494 65.091 9.16794 65.091 9.55094C65.0961 9.67334 65.1239 9.79372 65.173 9.90594C65.189 9.95094 65.206 9.99594 65.218 10.0389L65.388 10.3989C65.601 10.8249 65.962 11.0379 66.408 11.0379C66.542 11.0379 66.688 10.9979 66.828 10.9599L66.938 10.9299C67.576 10.7189 68.235 10.5699 69.254 10.5699C71.124 10.5699 71.761 11.6319 71.761 13.6079V14.0119C71.101 13.5219 69.913 13.1409 68.723 13.1409V13.1399ZM69.403 15.4549C70.38 15.4549 71.145 15.6669 71.761 16.1139H71.781V17.5139C71.357 18.0889 70.614 18.7259 69.169 18.7259C68.065 18.7259 67.236 18.1529 67.236 17.1329C67.236 15.9859 68.256 15.4549 69.403 15.4549ZM86.312 19.8949C86.3151 19.7136 86.2628 19.5357 86.162 19.3849L85.887 18.9389C85.632 18.4929 85.335 18.3229 84.952 18.3229C84.762 18.3229 84.549 18.3649 84.272 18.4709C83.996 18.5779 83.678 18.6199 83.317 18.6199C82.191 18.6199 81.702 17.6429 81.702 16.1769V11.2499H84.952C85.568 11.2499 86.078 10.7399 86.078 10.1239V9.10394C86.078 8.48894 85.568 7.97894 84.952 7.97894H81.702V5.34494C81.702 4.72894 81.192 4.21894 80.576 4.21894H79.366C78.75 4.21894 78.24 4.72894 78.24 5.34494V16.3049C78.24 19.7679 79.387 21.7439 82.424 21.7439C83.763 21.7439 84.782 21.4679 85.802 20.8509C86.142 20.6809 86.312 20.2779 86.312 19.8959V19.8949ZM93.194 13.1399C90.454 13.1399 88.266 14.5419 88.266 17.5149C88.266 20.1279 90.05 21.6579 92.429 21.6789C94.256 21.6789 95.701 20.9779 96.423 19.9589V20.4039C96.423 21.0199 96.933 21.5299 97.549 21.5299H98.335C98.951 21.5299 99.461 21.0199 99.461 20.4039V13.3099C99.461 9.74194 98.08 7.70294 94.086 7.70294C92.706 7.70294 91.366 8.06294 90.199 8.59494C89.838 8.76494 89.562 9.16794 89.562 9.55094C89.5671 9.67334 89.5949 9.79372 89.644 9.90594C89.66 9.95094 89.677 9.99594 89.689 10.0389L89.859 10.3989C90.072 10.8249 90.433 11.0379 90.879 11.0379C91.013 11.0379 91.159 10.9979 91.299 10.9599L91.409 10.9299C92.047 10.7189 92.706 10.5699 93.725 10.5699C95.595 10.5699 96.232 11.6319 96.232 13.6079V14.0119C95.572 13.5219 94.384 13.1409 93.194 13.1409V13.1399ZM93.874 15.4549C94.851 15.4549 95.616 15.6669 96.232 16.1139H96.252V17.5139C95.828 18.0889 95.085 18.7259 93.64 18.7259C92.536 18.7259 91.707 18.1529 91.707 17.1329C91.707 15.9859 92.727 15.4549 93.874 15.4549ZM110.676 7.74494C109.019 7.74494 107.426 8.40294 106.47 9.46494H106.407V9.08194C106.407 8.46594 105.897 7.95594 105.281 7.95594H104.07C103.454 7.95594 102.944 8.46594 102.944 9.08194V20.3619C102.944 20.9779 103.454 21.4879 104.07 21.4879H105.281C105.897 21.4879 106.407 20.9779 106.407 20.3619V12.4169C107.023 11.5039 108.021 10.9729 109.232 10.9729C110.676 10.9729 111.462 11.8859 111.462 13.3099V20.3199C111.462 20.9349 111.972 21.4449 112.588 21.4449H113.799C114.415 21.4449 114.925 20.9349 114.925 20.3189V13.4999C114.925 13.3239 114.918 13.1039 114.913 12.9059C114.908 12.7439 114.903 12.5959 114.903 12.5009C115.371 11.5879 116.39 10.9509 117.686 10.9509C119.322 10.9509 120.002 11.8639 120.002 13.5409V20.3609C120.002 20.9769 120.511 21.4869 121.127 21.4869H122.338C122.954 21.4869 123.464 20.9769 123.464 20.3609V12.6709C123.464 8.95394 121.616 7.74294 119.152 7.74294C117.07 7.74294 115.562 8.63494 114.606 9.90994C114.118 8.67794 112.737 7.74294 110.676 7.74294V7.74494ZM129.284 5.27994C130.261 5.27994 131.26 4.49394 131.26 3.11294C131.26 1.90294 130.261 1.11694 129.284 1.11694C128.116 1.11694 127.118 1.90294 127.118 3.11294C127.118 4.49294 128.116 5.27994 129.284 5.27994ZM130.941 9.10394C130.941 8.48794 130.431 7.97794 129.815 7.97794V7.95594H128.605C127.989 7.95594 127.479 8.46594 127.479 9.08194V20.3619C127.479 20.9779 127.989 21.4879 128.605 21.4879H129.815C130.431 21.4879 130.941 20.9779 130.941 20.3619V9.10394ZM141.881 10.8879C142.752 10.8879 143.453 11.0369 144.26 11.4179C144.403 11.4979 144.558 11.5299 144.698 11.5579L144.833 11.5879C145.237 11.5879 145.619 11.3339 145.853 10.9519L146.299 10.1659C146.405 10.0159 146.427 9.84594 146.427 9.67594C146.427 9.29494 146.235 8.84894 145.896 8.67894C144.579 7.95594 143.262 7.65894 141.456 7.65894C137.335 7.65894 134.467 10.8029 134.467 14.7329C134.467 18.9809 137.42 21.8059 141.881 21.8059C143.559 21.8059 144.982 21.5089 146.597 20.2129C146.851 20.0219 147 19.6179 147 19.2569C147 19.0239 146.936 18.7899 146.788 18.6409L146.278 18.0039C146.165 17.8645 146.023 17.7521 145.861 17.6749C145.699 17.5978 145.522 17.5578 145.343 17.5579C145.11 17.5579 144.855 17.6429 144.621 17.7919C143.835 18.3019 143.07 18.5779 142.008 18.5779C139.969 18.5779 138.121 17.0909 138.121 14.7119C138.121 12.3539 139.948 10.8879 141.881 10.8879Z" fill="#374151"/>
</svg>
